<mxfile host="app.diagrams.net" modified="2021-11-02T14:23:36.302Z" agent="5.0 (Macintosh; Intel Mac OS X 10_15_7) AppleWebKit/537.36 (KHTML, like Gecko) Chrome/95.0.4638.54 Safari/537.36" etag="InQIwNpW1xJNQBa_8Bv5" version="15.5.2" type="github">
  <diagram id="hx6i9FGdHrWzlgJRfL3x" name="Page-1">
    <mxGraphModel dx="1186" dy="629" grid="1" gridSize="10" guides="1" tooltips="1" connect="1" arrows="1" fold="1" page="1" pageScale="1" pageWidth="827" pageHeight="1169" math="0" shadow="0">
      <root>
        <mxCell id="0" />
        <mxCell id="1" parent="0" />
        <mxCell id="5UbEkDr4et_JbdGB8QBt-1" value="deep brain stimulation" style="swimlane;" parent="1" vertex="1">
          <mxGeometry x="290" y="250" width="260" height="270" as="geometry" />
        </mxCell>
        <mxCell id="5UbEkDr4et_JbdGB8QBt-45" value="Initiale Programmierung" style="rounded=1;whiteSpace=wrap;html=1;fontSize=14;strokeWidth=1;fillColor=none;gradientColor=none;" parent="5UbEkDr4et_JbdGB8QBt-1" vertex="1">
          <mxGeometry x="35" y="40" width="190" height="30" as="geometry" />
        </mxCell>
        <mxCell id="5UbEkDr4et_JbdGB8QBt-48" value="Folgeprogrammierung" style="rounded=1;whiteSpace=wrap;html=1;fontSize=14;strokeWidth=1;fillColor=none;gradientColor=none;" parent="5UbEkDr4et_JbdGB8QBt-1" vertex="1">
          <mxGeometry x="35" y="85" width="190" height="30" as="geometry" />
        </mxCell>
        <mxCell id="5UbEkDr4et_JbdGB8QBt-49" value="Testfunktion nach Einbau" style="rounded=1;whiteSpace=wrap;html=1;fontSize=14;strokeWidth=1;fillColor=none;gradientColor=none;" parent="5UbEkDr4et_JbdGB8QBt-1" vertex="1">
          <mxGeometry x="35" y="129" width="190" height="30" as="geometry" />
        </mxCell>
        <mxCell id="5UbEkDr4et_JbdGB8QBt-47" value="Steuerung fÃ¼r den Patienten ausgelegt" style="rounded=1;whiteSpace=wrap;html=1;fontSize=14;strokeWidth=1;fillColor=none;gradientColor=none;" parent="5UbEkDr4et_JbdGB8QBt-1" vertex="1">
          <mxGeometry x="35" y="172" width="195" height="40" as="geometry" />
        </mxCell>
        <mxCell id="3MPcOXyyZ2xV87Gvf-E0-1" value="aktualisieren des Systems" style="rounded=1;whiteSpace=wrap;html=1;fontSize=14;strokeWidth=1;fillColor=none;gradientColor=none;" vertex="1" parent="5UbEkDr4et_JbdGB8QBt-1">
          <mxGeometry x="37.5" y="225" width="190" height="30" as="geometry" />
        </mxCell>
        <mxCell id="5UbEkDr4et_JbdGB8QBt-2" value="" style="shape=image;html=1;verticalAlign=top;verticalLabelPosition=bottom;labelBackgroundColor=#ffffff;imageAspect=0;aspect=fixed;image=https://cdn1.iconfinder.com/data/icons/hospital-52/32/13-128.png" parent="1" vertex="1">
          <mxGeometry x="810" y="436" width="110" height="110" as="geometry" />
        </mxCell>
        <mxCell id="5UbEkDr4et_JbdGB8QBt-3" value="" style="shape=image;html=1;verticalAlign=top;verticalLabelPosition=bottom;labelBackgroundColor=#ffffff;imageAspect=0;aspect=fixed;image=https://cdn2.iconfinder.com/data/icons/covid-19/64/30-Doctor-128.png" parent="1" vertex="1">
          <mxGeometry x="550" y="460" width="100" height="100" as="geometry" />
        </mxCell>
        <mxCell id="5UbEkDr4et_JbdGB8QBt-4" value="" style="shape=image;html=1;verticalAlign=top;verticalLabelPosition=bottom;labelBackgroundColor=#ffffff;imageAspect=0;aspect=fixed;image=https://cdn2.iconfinder.com/data/icons/diseases-and-injury-1/340/injury_treatment_medical_health_head_patient_person_pain-128.png" parent="1" vertex="1">
          <mxGeometry x="150" y="92" width="128" height="128" as="geometry" />
        </mxCell>
        <mxCell id="5UbEkDr4et_JbdGB8QBt-5" value="" style="shape=image;html=1;verticalAlign=top;verticalLabelPosition=bottom;labelBackgroundColor=#ffffff;imageAspect=0;aspect=fixed;image=https://cdn2.iconfinder.com/data/icons/maternity-and-pregnancy-2/512/17_progress_report_statistics_patient_recovery-128.png" parent="1" vertex="1">
          <mxGeometry x="20" y="400" width="93" height="93" as="geometry" />
        </mxCell>
        <mxCell id="5UbEkDr4et_JbdGB8QBt-11" value="" style="shape=image;html=1;verticalAlign=top;verticalLabelPosition=bottom;labelBackgroundColor=#ffffff;imageAspect=0;aspect=fixed;image=https://cdn0.iconfinder.com/data/icons/business-collection-2027/60/justice-128.png" parent="1" vertex="1">
          <mxGeometry x="820" y="230" width="130" height="130" as="geometry" />
        </mxCell>
        <mxCell id="5UbEkDr4et_JbdGB8QBt-27" value="" style="sketch=0;pointerEvents=1;shadow=0;dashed=0;html=1;strokeColor=none;fillColor=#505050;labelPosition=center;verticalLabelPosition=bottom;verticalAlign=top;outlineConnect=0;align=center;shape=mxgraph.office.devices.tablet_ipad;" parent="1" vertex="1">
          <mxGeometry x="140" y="180" width="39" height="52" as="geometry" />
        </mxCell>
        <mxCell id="5UbEkDr4et_JbdGB8QBt-33" value="" style="shape=image;html=1;verticalAlign=top;verticalLabelPosition=bottom;labelBackgroundColor=#ffffff;imageAspect=0;aspect=fixed;image=https://cdn1.iconfinder.com/data/icons/IconsLandVistaPeopleIconsDemo/128/Nurse_Male_Dark.png;fontSize=14;" parent="1" vertex="1">
          <mxGeometry x="68" y="455" width="100" height="100" as="geometry" />
        </mxCell>
        <mxCell id="5UbEkDr4et_JbdGB8QBt-37" value="" style="shape=image;html=1;verticalAlign=top;verticalLabelPosition=bottom;labelBackgroundColor=#ffffff;imageAspect=0;aspect=fixed;image=https://cdn2.iconfinder.com/data/icons/health-care-and-first-responders/64/doctor-white-male-coronavirus-128.png;fontSize=14;" parent="1" vertex="1">
          <mxGeometry x="570" y="40" width="128" height="128" as="geometry" />
        </mxCell>
        <mxCell id="5UbEkDr4et_JbdGB8QBt-51" style="edgeStyle=orthogonalEdgeStyle;rounded=0;orthogonalLoop=1;jettySize=auto;html=1;fontSize=14;" parent="1" source="5UbEkDr4et_JbdGB8QBt-49" target="5UbEkDr4et_JbdGB8QBt-3" edge="1">
          <mxGeometry relative="1" as="geometry" />
        </mxCell>
        <mxCell id="5UbEkDr4et_JbdGB8QBt-54" value="" style="endArrow=none;dashed=1;html=1;rounded=0;fontSize=14;fillColor=#e51400;strokeColor=#B20000;strokeWidth=3;" parent="1" edge="1">
          <mxGeometry width="50" height="50" relative="1" as="geometry">
            <mxPoint x="780" y="20" as="sourcePoint" />
            <mxPoint x="780" y="670" as="targetPoint" />
          </mxGeometry>
        </mxCell>
        <mxCell id="5UbEkDr4et_JbdGB8QBt-55" value="Chirurg" style="rounded=1;whiteSpace=wrap;html=1;fontSize=14;strokeWidth=1;fillColor=none;gradientColor=none;" parent="1" vertex="1">
          <mxGeometry x="555" y="569" width="90" height="30" as="geometry" />
        </mxCell>
        <mxCell id="5UbEkDr4et_JbdGB8QBt-58" value="Versicherung und Gericht" style="rounded=1;whiteSpace=wrap;html=1;fontSize=14;strokeWidth=1;fillColor=none;gradientColor=none;" parent="1" vertex="1">
          <mxGeometry x="840" y="370" width="90" height="30" as="geometry" />
        </mxCell>
        <mxCell id="5UbEkDr4et_JbdGB8QBt-59" value="Pfleger" style="rounded=1;whiteSpace=wrap;html=1;fontSize=14;strokeWidth=1;fillColor=none;gradientColor=none;" parent="1" vertex="1">
          <mxGeometry x="60" y="560" width="90" height="30" as="geometry" />
        </mxCell>
        <mxCell id="5UbEkDr4et_JbdGB8QBt-60" value="Therapeut" style="rounded=1;whiteSpace=wrap;html=1;fontSize=14;strokeWidth=1;fillColor=none;gradientColor=none;" parent="1" vertex="1">
          <mxGeometry x="589" y="160" width="90" height="30" as="geometry" />
        </mxCell>
        <mxCell id="5UbEkDr4et_JbdGB8QBt-61" value="Patient" style="rounded=1;whiteSpace=wrap;html=1;fontSize=14;strokeWidth=1;fillColor=none;gradientColor=none;" parent="1" vertex="1">
          <mxGeometry x="140" y="232" width="90" height="30" as="geometry" />
        </mxCell>
        <mxCell id="5UbEkDr4et_JbdGB8QBt-62" style="edgeStyle=orthogonalEdgeStyle;rounded=0;orthogonalLoop=1;jettySize=auto;html=1;entryX=0.622;entryY=1.067;entryDx=0;entryDy=0;entryPerimeter=0;fontSize=14;strokeWidth=1;" parent="1" source="5UbEkDr4et_JbdGB8QBt-45" target="5UbEkDr4et_JbdGB8QBt-60" edge="1">
          <mxGeometry relative="1" as="geometry" />
        </mxCell>
        <mxCell id="5UbEkDr4et_JbdGB8QBt-64" value="medizinische Standards" style="rounded=1;whiteSpace=wrap;html=1;fontSize=14;strokeWidth=1;fillColor=none;gradientColor=none;" parent="1" vertex="1">
          <mxGeometry x="820" y="560" width="90" height="30" as="geometry" />
        </mxCell>
        <mxCell id="3MPcOXyyZ2xV87Gvf-E0-3" style="edgeStyle=orthogonalEdgeStyle;rounded=0;orthogonalLoop=1;jettySize=auto;html=1;entryX=0.578;entryY=0.967;entryDx=0;entryDy=0;entryPerimeter=0;" edge="1" parent="1" source="5UbEkDr4et_JbdGB8QBt-47" target="5UbEkDr4et_JbdGB8QBt-61">
          <mxGeometry relative="1" as="geometry" />
        </mxCell>
        <mxCell id="3MPcOXyyZ2xV87Gvf-E0-4" style="edgeStyle=orthogonalEdgeStyle;rounded=0;orthogonalLoop=1;jettySize=auto;html=1;entryX=1;entryY=0.5;entryDx=0;entryDy=0;" edge="1" parent="1" source="5UbEkDr4et_JbdGB8QBt-48" target="5UbEkDr4et_JbdGB8QBt-60">
          <mxGeometry relative="1" as="geometry" />
        </mxCell>
        <mxCell id="3MPcOXyyZ2xV87Gvf-E0-6" style="edgeStyle=orthogonalEdgeStyle;rounded=0;orthogonalLoop=1;jettySize=auto;html=1;entryX=1;entryY=0.75;entryDx=0;entryDy=0;" edge="1" parent="1" source="3MPcOXyyZ2xV87Gvf-E0-1" target="5UbEkDr4et_JbdGB8QBt-59">
          <mxGeometry relative="1" as="geometry" />
        </mxCell>
        <mxCell id="3MPcOXyyZ2xV87Gvf-E0-7" style="edgeStyle=orthogonalEdgeStyle;rounded=0;orthogonalLoop=1;jettySize=auto;html=1;entryX=0.753;entryY=0.108;entryDx=0;entryDy=0;entryPerimeter=0;" edge="1" parent="1" source="5UbEkDr4et_JbdGB8QBt-48" target="5UbEkDr4et_JbdGB8QBt-5">
          <mxGeometry relative="1" as="geometry" />
        </mxCell>
      </root>
    </mxGraphModel>
  </diagram>
</mxfile>
